<svg xmlns="http://www.w3.org/2000/svg" id="Слой_1" data-name="Слой 1" viewBox="0 0 280 288"><defs><style>.cls-1,.cls-3{fill:#41a6e4}.cls-3{fill-rule:evenodd}</style></defs><path d="M5.99 280.44v-37.12h10.93l-.01 11.65 8.11-11.65H37.75l-12.87 16.66 15.8 20.46H27.15l-10.23-15.17v15.17H5.99zM43.3 243.32h10.02v21.47l13.85-21.47H77.88v37.12H67.33v-21.43L53.7 280.44H42.77v-37.12h.53zM86.46 280.44v-37.12h10.92v37.12H86.46zM106 243.32h18q5 0 7.37 1.8a8.67 8.67 0 013.08 4 9.6 9.6 0 01.5 1.94 12.24 12.24 0 01.13 1.72 7.25 7.25 0 01-1.72 4.88 9.6 9.6 0 01-4.06 2.86v.11q.64.16 1.54.48a9.85 9.85 0 011.86.9 11 11 0 013 2.92 8.59 8.59 0 011.41 5.2q0 .32 0 .61c0 .19 0 .4 0 .61a10.49 10.49 0 01-3.18 6.26q-2.81 2.86-8.91 2.86h-19.57v-37.15zM116.38 273H121.73a7.48 7.48 0 001.38-.19 4.87 4.87 0 002.12-1.09 3.29 3.29 0 001-2.63 3 3 0 00-1-2.52 5.41 5.41 0 00-2.09-1 10.28 10.28 0 00-1.25-.13h-5.46V273zm0-15.06h3.82a5.81 5.81 0 003.29-.72 3.43 3.43 0 001.33-1.62 2.71 2.71 0 00.13-.61q0-.29 0-.56a3.73 3.73 0 00-1-2.57q-1-1.14-3.74-1.14h-3.82V258zM185.32 280.44V253.5H175v-10.18H206.56v10.18h-10.32v26.94H185.32zM201.55 280.44l13.21-37.12h13.15l13.15 37.12h-11.67l-2-6.42h-12.1l-2.07 6.42h-11.67zm19.78-27.68l-4 13.1h8l-4-13.1zM243 280.44v-37.12h16.18q5.94 0 8.88 2.55a12.71 12.71 0 014 5.62 12.85 12.85 0 01.53 2.2 28.16 28.16 0 01.16 2.92 13.62 13.62 0 01-.69 4.24 12.49 12.49 0 01-3.92 5.65q-3 2.57-8.91 2.57h-5.25v11.37H243zm10.92-29v9.42h2.44a5.91 5.91 0 003.34-.74 3.82 3.82 0 001.43-1.59 4 4 0 00.27-1.11q.05-.53.05-.85c0-.21 0-1.3 0-1.51s0-.42-.08-.64a3.94 3.94 0 00-1.33-2 5.59 5.59 0 00-3.66-.93zM159.26 281.5h-.92q-9.08-.27-13.93-5.88a20.2 20.2 0 01-4.94-11.09v-.66c0-.24 0-.48 0-.72v-2.39c0-.24 0-.48 0-.72v-.66a20.21 20.21 0 014.94-11.1q4.85-5.61 13.93-5.87h.92l.53.05a28.82 28.82 0 014.15.31 16.36 16.36 0 019.9 5.94l.53.66-7.51 6a6.6 6.6 0 00-.47-.61 9.47 9.47 0 00-4.56-3.08h-.08a5.64 5.64 0 00-1.17-.29l-.65-.06h-.56a7 7 0 00-1.1.1 6.93 6.93 0 00-.88.21h-.31a9.58 9.58 0 00-4.48 3.16q-2 2.41-2 7.13t2 7.13a9.58 9.58 0 004.48 3.16h.31a7.18 7.18 0 001.92.32h.62l.64-.06a5.66 5.66 0 001.17-.29h.08a9.48 9.48 0 004.56-3.08 6.5 6.5 0 00.47-.61l7.51 6-.53.66a16.37 16.37 0 01-9.87 5.93 28.67 28.67 0 01-4.18.31l-.53.05z" class="cls-1"/><path fill="#f3c644" fill-rule="evenodd" d="M79.76 219.48A9.72 9.72 0 1170 229.2a9.72 9.72 0 019.72-9.72zm24.33 0a9.72 9.72 0 11-9.72 9.72 9.72 9.72 0 019.72-9.72z"/><path d="M140 6.16a13.46 13.46 0 0113.42 13.42v49.9A13.46 13.46 0 01140 82.9a13.46 13.46 0 01-13.42-13.42v-49.9A13.46 13.46 0 01140 6.16zM38.7 79.8a13.46 13.46 0 0116.91-8.62l47.45 15.42a13.46 13.46 0 018.62 16.91 13.46 13.46 0 01-16.91 8.62L47.31 96.71A13.46 13.46 0 0138.7 79.8zM77.41 198.94a13.46 13.46 0 01-3-18.75l29.33-40.37a13.46 13.46 0 0118.75-3 13.46 13.46 0 013 18.75L96.16 196a13.46 13.46 0 01-18.75 3zM202.69 198.94a13.46 13.46 0 01-18.75-3l-29.33-40.34a13.46 13.46 0 013-18.75 13.46 13.46 0 0118.75 3l29.33 40.37a13.46 13.46 0 01-3 18.75zM241.4 79.79a13.46 13.46 0 01-8.62 16.91l-47.45 15.42a13.46 13.46 0 01-16.91-8.62A13.46 13.46 0 01177 86.59l47.45-15.42a13.46 13.46 0 0116.91 8.62z" class="cls-3"/></svg>