<svg xmlns="http://www.w3.org/2000/svg" viewBox="0 0 200 200" enable-background="new 0 0 200 200"><style type="text/css">.st0{fill:#737373;} .st1{fill:#FFFFFF;} .st2{fill:#5EAF4C;} .st3{fill:#FF5F00;} .st4{fill:#EB001B;} .st5{fill:#F79E1B;} .st6{fill:#0066B2;} .st7{fill:#F9A533;} .st8{fill:#FF8C00;} .st9{fill-rule:evenodd;clip-rule:evenodd;fill:#1A5EAB;} .st10{fill:#FECB00;} .st11{fill:#D5AA05;} .st12{fill:#FE0000;}</style><path d="M83.6 110.1zM83.6 110.1c0 .1 0 .1 0 0 0 .1 0 .1 0 0 0 .1 0 .1 0 0zM83.6 110.2zM83.6 110.2zM83.6 110.2zM83.6 110.1c0 .1 0 .1 0 0 0 .1 0 .1 0 0z" class="st0"/><path d="M25.8 163.6h17.7v21.2h-4.7v-17h-8.4v17h-4.7v-21.2zM48.1 168.6h4.6v2.3c1.1-1.5 2.7-2.6 5.1-2.6 3.8 0 7.4 3 7.4 8.5 0 5.4-3.5 8.4-7.4 8.4-2.5 0-4-1.1-5.1-2.4v7h-4.6v-21.2zm12.5 8.1c0-2.7-1.8-4.5-4-4.5s-3.9 1.8-3.9 4.6c0 2.7 1.8 4.5 3.9 4.5 2.1-.1 4-1.8 4-4.6zM83.7 184.9h-4.5v-9.5l-6.3 9.5h-4.3v-16.3H73v9.5l6.3-9.5h4.3v16.3zM96.8 168.6c3.3 0 5.4 1.5 5.4 4.1 0 2-1.2 3.1-2.6 3.7 2 .6 3.2 1.8 3.2 4.1 0 2.8-2.3 4.4-6.1 4.4h-8.9v-16.3h9zm-1.2 6.5c1.3 0 1.9-.7 1.9-1.6 0-.8-.5-1.5-1.9-1.5h-3.3v3.1h3.3zm.4 6.1c1.4 0 2.1-.7 2.1-1.6 0-.9-.6-1.6-2.2-1.6h-3.5v3.2H96zM105.1 180.1c0-3.5 2.7-5.2 6.6-5.2 1.6 0 2.8.3 4 .7v-.3c0-1.9-1.2-3-3.5-3-1.8 0-3 .3-4.5.9l-1.2-3.5c1.8-.8 3.5-1.3 6.3-1.3 2.5 0 4.3.7 5.5 1.8 1.2 1.2 1.8 3 1.8 5.2v9.4h-4.5V183c-1.1 1.2-2.7 2.1-4.9 2.1-3.1.1-5.6-1.7-5.6-5zm10.6-1v-.8c-.8-.4-1.8-.6-2.9-.6-2 0-3.2.8-3.2 2.3 0 1.2 1 2 2.5 2 2.1 0 3.6-1.2 3.6-2.9zM136.4 172.5h-4.8v12.3h-4.7v-12.3h-4.8v-3.9h14.3v3.9zM138.4 181.2l7.1-5.8c2.6-2.2 3.7-3.3 3.7-5.1 0-1.8-1.2-2.8-2.9-2.8-1.6 0-2.8.9-4.3 2.9l-3.3-2.6c2.1-2.9 4.1-4.4 7.9-4.4 4.4 0 7.3 2.6 7.3 6.6 0 3.5-1.8 5.3-5.6 8.2l-3.5 2.7h9.3v4h-15.7v-3.7zM167.4 180.3H157l-.8-3.3 11.6-13.5h3.9v13h2.9v3.8h-2.9v4.6h-4.5v-4.6zm0-3.8v-6.6l-5.6 6.6h5.6z" class="st1"/><path d="M172 10.4c-5.6 0-11.1 0-16.7 0-43.3 0-86.6 0-129.9 0 0 .2-.1.5-.1.7 0 15.7 0 31.4 0 47.1 0 7.3-.2 14.6 0 21.8 0 .5.1 1.1.5 1.4.3.2.7.3 1 .3 9.9.5 19.8-.4 29.6 1.3 11.6 2.1 22 6.2 30.2 15 5.2 5.5 8.6 11.9 10.8 19 3.3 10.5 3.9 21.4 3.8 32.4 0 .7-.1 7.7-.1 7.7 13.2 0 26.4.1 39.6.1 10.4 0 20.8 0 31.2-.1 0-47.8 0-95.6 0-143.3.2-1.3.2-2.4.1-3.4zm-29.6 114c0 .8.3 1.7-.5 2.3-3.4 0-6.8 0-10.3 0-.9 0-1.5 0-1.6-1.2-.9-8.4-3-16.6-6.2-24.4-3.5-8.6-8.2-16.4-14.5-23.3-7.4-8.1-16.1-14.1-26.2-18.4-8-3.4-16.3-5.8-25-6.7-1.6-.2-2.8-.7-2.6-2.9.3-3.1.1-6.2.1-9.4.6-.8 1.5-.5 2.3-.5 27.2 0 54.4 0 81.7 0 .8 0 1.7-.3 2.3.5.8.6.5 1.5.5 2.3 0 27.3 0 54.5 0 81.7z" class="st2"/><path d="M25.3 98.7h60.9v58.1H25.3z" class="st1"/></svg>